# xmcd
#
# Track frame offsets: 
#        150
#        5343
#        17813
#        41414
#        50881
#        70645
#        99280
#        117942
#        136176
#        158224
#        178186
#        192381
#        209243
#        226195
#        240755
#        254439
#
# Disc length: 3486 seconds
#
# Revision: 0
# Processed by: cddbd v1.5.2PL0 Copyright (c) Steve Scherf et al.
# Submitted via: ExactAudioCopy v1.3
#
DISCID=d50d9c10
DTITLE=Flying W Wranglers - Christmas at Flying W
DYEAR=2008
DGENRE=Christmas
TTITLE0=Flying W Christmas
TTITLE1=Christmas on the Line
TTITLE2=Christmas Times A'comin
TTITLE3=Go Tell it on the Mtns
TTITLE4=Medley-Noel-Manger-Silent
TTITLE5=Texas Christmas Story
TTITLE6=What Child is This?
TTITLE7=Somebody's Praying
TTITLE8=Colorado Christmas
TTITLE9=Medley
TTITLE10=Children Go
TTITLE11=O Little Town
TTITLE12=Christmas Song(Chestnuts)
TTITLE13=Medley
TTITLE14=Christmas Waltz
TTITLE15=Flying W Christmas
EXTD=
EXTT0=
EXTT1=
EXTT2=
EXTT3=
EXTT4=
EXTT5=
EXTT6=
EXTT7=
EXTT8=
EXTT9=
EXTT10=
EXTT11=
EXTT12=
EXTT13=
EXTT14=
EXTT15=
PLAYORDER=
